<mxfile host="app.diagrams.net" modified="2022-04-25T06:45:26.223Z" agent="5.0 (Windows NT 10.0; Win64; x64) AppleWebKit/537.36 (KHTML, like Gecko) Chrome/100.0.4896.127 Safari/537.36" etag="wOORuL1FfnrKvroKCjw8" version="17.4.6" type="github">
  <diagram id="C5RBs43oDa-KdzZeNtuy" name="Page-1">
    <mxGraphModel dx="1021" dy="574" grid="1" gridSize="10" guides="1" tooltips="1" connect="1" arrows="1" fold="1" page="1" pageScale="1" pageWidth="827" pageHeight="1169" math="0" shadow="0">
      <root>
        <mxCell id="WIyWlLk6GJQsqaUBKTNV-0" />
        <mxCell id="WIyWlLk6GJQsqaUBKTNV-1" parent="WIyWlLk6GJQsqaUBKTNV-0" />
        <mxCell id="GEA49JJ0HyQCU_waUK4Q-17" value="Users" style="rounded=0;whiteSpace=wrap;html=1;" vertex="1" parent="WIyWlLk6GJQsqaUBKTNV-1">
          <mxGeometry x="409" y="521" width="60" height="30" as="geometry" />
        </mxCell>
        <mxCell id="GEA49JJ0HyQCU_waUK4Q-32" value="" style="group;rotation=44;" vertex="1" connectable="0" parent="WIyWlLk6GJQsqaUBKTNV-1">
          <mxGeometry x="484.85" y="431.8" width="165.14999999999998" height="120" as="geometry" />
        </mxCell>
        <mxCell id="GEA49JJ0HyQCU_waUK4Q-33" value="" style="endArrow=classic;startArrow=classic;html=1;rounded=0;fontSize=12;" edge="1" parent="GEA49JJ0HyQCU_waUK4Q-32" source="GEA49JJ0HyQCU_waUK4Q-67">
          <mxGeometry width="50" height="50" relative="1" as="geometry">
            <mxPoint x="-192" y="102" as="sourcePoint" />
            <mxPoint x="-75.85000000000002" y="102.19999999999999" as="targetPoint" />
          </mxGeometry>
        </mxCell>
        <mxCell id="GEA49JJ0HyQCU_waUK4Q-34" value="&lt;span style=&quot;font-size: 11px&quot;&gt;&lt;b&gt;Start&lt;/b&gt;&lt;/span&gt;" style="text;html=1;strokeColor=none;fillColor=none;align=center;verticalAlign=middle;whiteSpace=wrap;rounded=0;fontSize=12;rotation=0;" vertex="1" parent="GEA49JJ0HyQCU_waUK4Q-32">
          <mxGeometry x="-159" y="80" width="51.72413793103448" height="26.150043879646564" as="geometry" />
        </mxCell>
        <mxCell id="GEA49JJ0HyQCU_waUK4Q-35" value="&lt;span style=&quot;font-size: 11px&quot;&gt;&lt;b&gt;response&lt;/b&gt;&lt;/span&gt;" style="text;html=1;strokeColor=none;fillColor=none;align=center;verticalAlign=middle;whiteSpace=wrap;rounded=0;fontSize=12;rotation=0;" vertex="1" parent="GEA49JJ0HyQCU_waUK4Q-32">
          <mxGeometry x="-157" y="96" width="51.72413793103448" height="26.150043879646564" as="geometry" />
        </mxCell>
        <mxCell id="GEA49JJ0HyQCU_waUK4Q-60" value="&lt;p class=&quot;MsoNormal&quot;&gt;&lt;span style=&quot;color: rgba(0 , 0 , 0 , 0) ; font-family: monospace ; font-size: 0px&quot;&gt;sss%3CmxGraphModel%3E%3Croot%3E%3CmxCell%20id%3D%220%22%2F%3E%3CmxCell%20id%3D%221%22%20parent%3D%220%22%2F%3E%3CmxCell%20id%3D%222%22%20value%3D%22%26lt%3Bp%20class%3D%26quot%3BMsoNormal%26quot%3B%26gt%3B%26lt%3Bspan%20style%3D%26quot%3Bfont-family%3A%20%26amp%3B%2334%3Btimes%20new%20roman%26amp%3B%2334%3B%20%3B%20font-size%3A%2010.5000pt%26quot%3B%26gt%3Bquestions%26amp%3Bnbsp%3B%26lt%3B%2Fspan%26gt%3B%26lt%3Bspan%20style%3D%26quot%3Bfont-family%3A%20%26amp%3B%2334%3Btimes%20new%20roman%26amp%3B%2334%3B%20%3B%20font-size%3A%2010.5pt%26quot%3B%26gt%3Bmodule%26lt%3B%2Fspan%26gt%3B%26lt%3B%2Fp%26gt%3B%22%20style%3D%22rounded%3D1%3BwhiteSpace%3Dwrap%3Bhtml%3D1%3BfontSize%3D12%3Bglass%3D0%3BstrokeWidth%3D1%3Bshadow%3D0%3B%22%20vertex%3D%221%22%20parent%3D%221%22%3E%3CmxGeometry%20x%3D%22420%22%20y%3D%22100%22%20width%3D%22120%22%20height%3D%2240%22%20as%3D%22geometry%22%2F%3E%3C%2FmxCell%3E%3C%2Froot%3E%3C%2FmxGraphModel%&lt;/span&gt;&lt;span style=&quot;font-family: &amp;#34;times new roman&amp;#34; ; font-size: 10.5pt&quot;&gt;Force sell&amp;nbsp;&lt;/span&gt;&lt;br&gt;&lt;/p&gt;" style="rounded=1;whiteSpace=wrap;html=1;fontSize=12;glass=0;strokeWidth=1;shadow=0;" vertex="1" parent="GEA49JJ0HyQCU_waUK4Q-32">
          <mxGeometry x="76.14999999999998" y="84" width="120" height="40" as="geometry" />
        </mxCell>
        <mxCell id="GEA49JJ0HyQCU_waUK4Q-61" value="&lt;p class=&quot;MsoNormal&quot;&gt;&lt;span style=&quot;color: rgba(0 , 0 , 0 , 0) ; font-family: monospace ; font-size: 0px&quot;&gt;sss%3CmxGraphModel%3E%3Croot%3E%3CmxCell%20id%3D%220%22%2F%3E%3CmxCell%20id%3D%221%22%20parent%3D%220%22%2F%3E%3CmxCell%20id%3D%222%22%20value%3D%22%26lt%3Bp%20class%3D%26quot%3BMsoNormal%26quot%3B%26gt%3B%26lt%3Bspan%20style%3D%26quot%3Bfont-family%3A%20%26amp%3B%2334%3Btimes%20new%20roman%26amp%3B%2334%3B%20%3B%20font-size%3A%2010.5000pt%26quot%3B%26gt%3Bquestions%26amp%3Bnbsp%3B%26lt%3B%2Fspan%26gt%3B%26lt%3Bspan%20style%3D%26quot%3Bfont-family%3A%20%26amp%3B%2334%3Btimes%20new%20roman%26amp%3B%2334%3B%20%3B%20font-size%3A%2010.5pt%26quot%3B%26gt%3Bmodule%26lt%3B%2Fspan%26gt%3B%26lt%3B%2Fp%26gt%3B%22%20style%3D%22rounded%3D1%3BwhiteSpace%3Dwrap%3Bhtml%3D1%3BfontSize%3D12%3Bglass%3D0%3BstrokeWidth%3D1%3Bshadow%3D0%3B%22%20vertex%3D%221%22%20parent%3D%221%22%3E%3CmxGeometry%20x%3D%22420%22%20y%3D%22100%22%20width%3D%22120%22%20height%3D%2240%22%20as%3D%22geometry%22%2F%3E%3C%2FmxCell%3E%3C%2Froot%3E%3C%2FmxGraphModel%&lt;/span&gt;&lt;span style=&quot;font-family: &amp;#34;times new roman&amp;#34; ; font-size: 10.5pt&quot;&gt;Get S&amp;amp;P500 Data&amp;nbsp;&lt;/span&gt;&lt;br&gt;&lt;/p&gt;" style="rounded=1;whiteSpace=wrap;html=1;fontSize=12;glass=0;strokeWidth=1;shadow=0;" vertex="1" parent="WIyWlLk6GJQsqaUBKTNV-1">
          <mxGeometry x="604" y="194" width="120" height="40" as="geometry" />
        </mxCell>
        <mxCell id="GEA49JJ0HyQCU_waUK4Q-62" value="&lt;p class=&quot;MsoNormal&quot;&gt;&lt;span style=&quot;color: rgba(0 , 0 , 0 , 0) ; font-family: monospace ; font-size: 0px&quot;&gt;sss%3CmxGraphModel%3E%3Croot%3E%3CmxCell%20id%3D%220%22%2F%3E%3CmxCell%20id%3D%221%22%20parent%3D%220%22%2F%3E%3CmxCell%20id%3D%222%22%20value%3D%22%26lt%3Bp%20class%3D%26quot%3BMsoNormal%26quot%3B%26gt%3B%26lt%3Bspan%20style%3D%26quot%3Bfont-family%3A%20%26amp%3B%2334%3Btimes%20new%20roman%26amp%3B%2334%3B%20%3B%20font-size%3A%2010.5000pt%26quot%3B%26gt%3Bquestions%26amp%3Bnbsp%3B%26lt%3B%2Fspan%26gt%3B%26lt%3Bspan%20style%3D%26quot%3Bfont-family%3A%20%26amp%3B%2334%3Btimes%20new%20roman%26amp%3B%2334%3B%20%3B%20font-size%3A%2010.5pt%26quot%3B%26gt%3Bmodule%26lt%3B%2Fspan%26gt%3B%26lt%3B%2Fp%26gt%3B%22%20style%3D%22rounded%3D1%3BwhiteSpace%3Dwrap%3Bhtml%3D1%3BfontSize%3D12%3Bglass%3D0%3BstrokeWidth%3D1%3Bshadow%3D0%3B%22%20vertex%3D%221%22%20parent%3D%221%22%3E%3CmxGeometry%20x%3D%22420%22%20y%3D%22100%22%20width%3D%22120%22%20height%3D%2240%22%20as%3D%22geometry%22%2F%3E%3C%2FmxCell%3E%3C%2Froot%3E%3C%2FmxGraphModel%&lt;/span&gt;&lt;span style=&quot;font-family: &amp;#34;times new roman&amp;#34; ; font-size: 10.5pt&quot;&gt;&amp;nbsp;Just Sell&amp;nbsp;&lt;/span&gt;&lt;br&gt;&lt;/p&gt;" style="rounded=1;whiteSpace=wrap;html=1;fontSize=12;glass=0;strokeWidth=1;shadow=0;" vertex="1" parent="WIyWlLk6GJQsqaUBKTNV-1">
          <mxGeometry x="630" y="413.08" width="120" height="40" as="geometry" />
        </mxCell>
        <mxCell id="GEA49JJ0HyQCU_waUK4Q-49" value="" style="endArrow=none;dashed=1;html=1;dashPattern=1 3;strokeWidth=2;rounded=0;fontSize=9;" edge="1" parent="WIyWlLk6GJQsqaUBKTNV-1">
          <mxGeometry width="50" height="50" relative="1" as="geometry">
            <mxPoint x="40" y="630" as="sourcePoint" />
            <mxPoint x="40" y="40" as="targetPoint" />
          </mxGeometry>
        </mxCell>
        <mxCell id="GEA49JJ0HyQCU_waUK4Q-50" value="" style="endArrow=none;dashed=1;html=1;dashPattern=1 3;strokeWidth=2;rounded=0;fontSize=9;" edge="1" parent="WIyWlLk6GJQsqaUBKTNV-1">
          <mxGeometry width="50" height="50" relative="1" as="geometry">
            <mxPoint x="40" y="40" as="sourcePoint" />
            <mxPoint x="810" y="40" as="targetPoint" />
          </mxGeometry>
        </mxCell>
        <mxCell id="GEA49JJ0HyQCU_waUK4Q-51" value="" style="endArrow=none;dashed=1;html=1;dashPattern=1 3;strokeWidth=2;rounded=0;fontSize=9;" edge="1" parent="WIyWlLk6GJQsqaUBKTNV-1">
          <mxGeometry width="50" height="50" relative="1" as="geometry">
            <mxPoint x="811" y="630" as="sourcePoint" />
            <mxPoint x="811" y="40" as="targetPoint" />
          </mxGeometry>
        </mxCell>
        <mxCell id="GEA49JJ0HyQCU_waUK4Q-52" value="" style="endArrow=none;dashed=1;html=1;dashPattern=1 3;strokeWidth=2;rounded=0;fontSize=9;" edge="1" parent="WIyWlLk6GJQsqaUBKTNV-1">
          <mxGeometry width="50" height="50" relative="1" as="geometry">
            <mxPoint x="45" y="637" as="sourcePoint" />
            <mxPoint x="815" y="630" as="targetPoint" />
          </mxGeometry>
        </mxCell>
        <mxCell id="GEA49JJ0HyQCU_waUK4Q-53" value="&lt;font style=&quot;font-size: 20px&quot;&gt;&lt;b&gt;&lt;br&gt;Back-testing&lt;/b&gt;&lt;/font&gt;" style="text;html=1;strokeColor=none;fillColor=none;align=center;verticalAlign=middle;whiteSpace=wrap;rounded=0;fontSize=9;" vertex="1" parent="WIyWlLk6GJQsqaUBKTNV-1">
          <mxGeometry x="330" y="40" width="200" height="30" as="geometry" />
        </mxCell>
        <mxCell id="GEA49JJ0HyQCU_waUK4Q-65" value="&lt;span style=&quot;font-size: 12px&quot;&gt;CSV Files&lt;/span&gt;" style="strokeWidth=2;html=1;shape=mxgraph.flowchart.annotation_1;align=center;pointerEvents=1;fontSize=8;" vertex="1" parent="WIyWlLk6GJQsqaUBKTNV-1">
          <mxGeometry x="363" y="102" width="115" height="41" as="geometry" />
        </mxCell>
        <mxCell id="GEA49JJ0HyQCU_waUK4Q-66" value="&lt;span style=&quot;font-size: 12px&quot;&gt;Web LocalStorage&lt;/span&gt;" style="strokeWidth=2;html=1;shape=mxgraph.flowchart.annotation_1;align=center;pointerEvents=1;fontSize=8;" vertex="1" parent="WIyWlLk6GJQsqaUBKTNV-1">
          <mxGeometry x="162.5" y="320" width="115" height="41" as="geometry" />
        </mxCell>
        <mxCell id="GEA49JJ0HyQCU_waUK4Q-67" value="&lt;p class=&quot;MsoNormal&quot;&gt;&lt;span style=&quot;color: rgba(0 , 0 , 0 , 0) ; font-family: monospace ; font-size: 0px&quot;&gt;sss%3CmxGraphModel%3E%3Croot%3E%3CmxCell%20id%3D%220%22%2F%3E%3CmxCell%20id%3D%221%22%20parent%3D%220%22%2F%3E%3CmxCell%20id%3D%222%22%20value%3D%22%26lt%3Bp%20class%3D%26quot%3BMsoNormal%26quot%3B%26gt%3B%26lt%3Bspan%20style%3D%26quot%3Bfont-family%3A%20%26amp%3B%2334%3Btimes%20new%20roman%26amp%3B%2334%3B%20%3B%20font-size%3A%2010.5000pt%26quot%3B%26gt%3Bquestions%26amp%3Bnbsp%3B%26lt%3B%2Fspan%26gt%3B%26lt%3Bspan%20style%3D%26quot%3Bfont-family%3A%20%26amp%3B%2334%3Btimes%20new%20roman%26amp%3B%2334%3B%20%3B%20font-size%3A%2010.5pt%26quot%3B%26gt%3Bmodule%26lt%3B%2Fspan%26gt%3B%26lt%3B%2Fp%26gt%3B%22%20style%3D%22rounded%3D1%3BwhiteSpace%3Dwrap%3Bhtml%3D1%3BfontSize%3D12%3Bglass%3D0%3BstrokeWidth%3D1%3Bshadow%3D0%3B%22%20vertex%3D%221%22%20parent%3D%221%22%3E%3CmxGeometry%20x%3D%22420%22%20y%3D%22100%22%20width%3D%22120%22%20height%3D%2240%22%20as%3D%22geometry%22%2F%3E%3C%2FmxCell%3E%3C%2Froot%3E%3C%2FmxGraphModel%3Es&lt;/span&gt;&lt;span style=&quot;font-family: &amp;#34;times new roman&amp;#34; ; font-size: 10.5pt&quot;&gt;Reset back-testing&lt;/span&gt;&lt;br&gt;&lt;/p&gt;" style="rounded=1;whiteSpace=wrap;html=1;fontSize=12;glass=0;strokeWidth=1;shadow=0;" vertex="1" parent="WIyWlLk6GJQsqaUBKTNV-1">
          <mxGeometry x="160" y="513" width="120" height="40" as="geometry" />
        </mxCell>
        <mxCell id="GEA49JJ0HyQCU_waUK4Q-70" value="&lt;p class=&quot;MsoNormal&quot;&gt;&lt;span style=&quot;color: rgba(0 , 0 , 0 , 0) ; font-family: monospace ; font-size: 0px&quot;&gt;sss%3CmxGraphModel%3E%3Croot%3E%3CmxCell%20id%3D%220%22%2F%3E%3CmxCell%20id%3D%221%22%20parent%3D%220%22%2F%3E%3CmxCell%20id%3D%222%22%20value%3D%22%26lt%3Bp%20class%3D%26quot%3BMsoNormal%26quot%3B%26gt%3B%26lt%3Bspan%20style%3D%26quot%3Bfont-family%3A%20%26amp%3B%2334%3Btimes%20new%20roman%26amp%3B%2334%3B%20%3B%20font-size%3A%2010.5000pt%26quot%3B%26gt%3Bquestions%26amp%3Bnbsp%3B%26lt%3B%2Fspan%26gt%3B%26lt%3Bspan%20style%3D%26quot%3Bfont-family%3A%20%26amp%3B%2334%3Btimes%20new%20roman%26amp%3B%2334%3B%20%3B%20font-size%3A%2010.5pt%26quot%3B%26gt%3Bmodule%26lt%3B%2Fspan%26gt%3B%26lt%3B%2Fp%26gt%3B%22%20style%3D%22rounded%3D1%3BwhiteSpace%3Dwrap%3Bhtml%3D1%3BfontSize%3D12%3Bglass%3D0%3BstrokeWidth%3D1%3Bshadow%3D0%3B%22%20vertex%3D%221%22%20parent%3D%221%22%3E%3CmxGeometry%20x%3D%22420%22%20y%3D%22100%22%20width%3D%22120%22%20height%3D%2240%22%20as%3D%22geometry%22%2F%3E%3C%2FmxCell%3E%3C%2Froot%3E%3C%2FmxGraphModel%&lt;/span&gt;&lt;span style=&quot;font-family: &amp;#34;times new roman&amp;#34; ; font-size: 10.5pt&quot;&gt;Find Buy Signals&lt;/span&gt;&lt;br&gt;&lt;/p&gt;" style="rounded=1;whiteSpace=wrap;html=1;fontSize=12;glass=0;strokeWidth=1;shadow=0;" vertex="1" parent="WIyWlLk6GJQsqaUBKTNV-1">
          <mxGeometry x="150" y="194" width="120" height="40" as="geometry" />
        </mxCell>
        <mxCell id="GEA49JJ0HyQCU_waUK4Q-71" value="&lt;p class=&quot;MsoNormal&quot;&gt;&lt;span style=&quot;color: rgba(0 , 0 , 0 , 0) ; font-family: monospace ; font-size: 0px&quot;&gt;sss%3CmxGraphModel%3E%3Croot%3E%3CmxCell%20id%3D%220%22%2F%3E%3CmxCell%20id%3D%221%22%20parent%3D%220%22%2F%3E%3CmxCell%20id%3D%222%22%20value%3D%22%26lt%3Bp%20class%3D%26quot%3BMsoNormal%26quot%3B%26gt%3B%26lt%3Bspan%20style%3D%26quot%3Bfont-family%3A%20%26amp%3B%2334%3Btimes%20new%20roman%26amp%3B%2334%3B%20%3B%20font-size%3A%2010.5000pt%26quot%3B%26gt%3Bquestions%26amp%3Bnbsp%3B%26lt%3B%2Fspan%26gt%3B%26lt%3Bspan%20style%3D%26quot%3Bfont-family%3A%20%26amp%3B%2334%3Btimes%20new%20roman%26amp%3B%2334%3B%20%3B%20font-size%3A%2010.5pt%26quot%3B%26gt%3Bmodule%26lt%3B%2Fspan%26gt%3B%26lt%3B%2Fp%26gt%3B%22%20style%3D%22rounded%3D1%3BwhiteSpace%3Dwrap%3Bhtml%3D1%3BfontSize%3D12%3Bglass%3D0%3BstrokeWidth%3D1%3Bshadow%3D0%3B%22%20vertex%3D%221%22%20parent%3D%221%22%3E%3CmxGeometry%20x%3D%22420%22%20y%3D%22100%22%20width%3D%22120%22%20height%3D%2240%22%20as%3D%22geometry%22%2F%3E%3C%2FmxCell%3E%3C%2Froot%3E%3C%2FmxGraphModel%&lt;/span&gt;&lt;span style=&quot;font-family: &amp;#34;times new roman&amp;#34; ; font-size: 10.5pt&quot;&gt;Find sell Signals&amp;nbsp;&lt;/span&gt;&lt;/p&gt;" style="rounded=1;whiteSpace=wrap;html=1;fontSize=12;glass=0;strokeWidth=1;shadow=0;" vertex="1" parent="WIyWlLk6GJQsqaUBKTNV-1">
          <mxGeometry x="303" y="194" width="120" height="40" as="geometry" />
        </mxCell>
        <mxCell id="GEA49JJ0HyQCU_waUK4Q-72" value="&lt;p class=&quot;MsoNormal&quot;&gt;&lt;span style=&quot;color: rgba(0 , 0 , 0 , 0) ; font-family: monospace ; font-size: 0px&quot;&gt;sss%3CmxGraphModel%3E%3Croot%3E%3CmxCell%20id%3D%220%22%2F%3E%3CmxCell%20id%3D%221%22%20parent%3D%220%22%2F%3E%3CmxCell%20id%3D%222%22%20value%3D%22%26lt%3Bp%20class%3D%26quot%3BMsoNormal%26quot%3B%26gt%3B%26lt%3Bspan%20style%3D%26quot%3Bfont-family%3A%20%26amp%3B%2334%3Btimes%20new%20roman%26amp%3B%2334%3B%20%3B%20font-size%3A%2010.5000pt%26quot%3B%26gt%3Bquestions%26amp%3Bnbsp%3B%26lt%3B%2Fspan%26gt%3B%26lt%3Bspan%20style%3D%26quot%3Bfont-family%3A%20%26amp%3B%2334%3Btimes%20new%20roman%26amp%3B%2334%3B%20%3B%20font-size%3A%2010.5pt%26quot%3B%26gt%3Bmodule%26lt%3B%2Fspan%26gt%3B%26lt%3B%2Fp%26gt%3B%22%20style%3D%22rounded%3D1%3BwhiteSpace%3Dwrap%3Bhtml%3D1%3BfontSize%3D12%3Bglass%3D0%3BstrokeWidth%3D1%3Bshadow%3D0%3B%22%20vertex%3D%221%22%20parent%3D%221%22%3E%3CmxGeometry%20x%3D%22420%22%20y%3D%22100%22%20width%3D%22120%22%20height%3D%2240%22%20as%3D%22geometry%22%2F%3E%3C%2FmxCell%3E%3C%2Froot%3E%3C%2FmxGraphModel%&lt;/span&gt;&lt;span style=&quot;font-family: &amp;#34;times new roman&amp;#34; ; font-size: 10.5pt&quot;&gt;Is Market Open&lt;/span&gt;&lt;br&gt;&lt;/p&gt;" style="rounded=1;whiteSpace=wrap;html=1;fontSize=12;glass=0;strokeWidth=1;shadow=0;" vertex="1" parent="WIyWlLk6GJQsqaUBKTNV-1">
          <mxGeometry x="614.5699999999999" y="320" width="120" height="40" as="geometry" />
        </mxCell>
        <mxCell id="GEA49JJ0HyQCU_waUK4Q-75" value="" style="endArrow=classic;html=1;rounded=0;fontSize=20;entryX=0.5;entryY=1;entryDx=0;entryDy=0;entryPerimeter=0;exitX=0.5;exitY=0;exitDx=0;exitDy=0;" edge="1" parent="WIyWlLk6GJQsqaUBKTNV-1" source="GEA49JJ0HyQCU_waUK4Q-67" target="GEA49JJ0HyQCU_waUK4Q-66">
          <mxGeometry width="50" height="50" relative="1" as="geometry">
            <mxPoint x="170" y="480" as="sourcePoint" />
            <mxPoint x="210" y="370" as="targetPoint" />
          </mxGeometry>
        </mxCell>
        <mxCell id="GEA49JJ0HyQCU_waUK4Q-78" value="&lt;span style=&quot;font-size: 11px&quot;&gt;&lt;b&gt;Reset&lt;/b&gt;&lt;/span&gt;" style="text;html=1;strokeColor=none;fillColor=none;align=center;verticalAlign=middle;whiteSpace=wrap;rounded=0;fontSize=12;rotation=-90;" vertex="1" parent="WIyWlLk6GJQsqaUBKTNV-1">
          <mxGeometry x="185.85000000000002" y="431.79999999999995" width="51.72413793103448" height="26.150043879646564" as="geometry" />
        </mxCell>
        <mxCell id="GEA49JJ0HyQCU_waUK4Q-79" value="" style="endArrow=classic;startArrow=classic;html=1;rounded=0;fontSize=20;exitX=0.25;exitY=0;exitDx=0;exitDy=0;entryX=0.438;entryY=1.066;entryDx=0;entryDy=0;entryPerimeter=0;" edge="1" parent="WIyWlLk6GJQsqaUBKTNV-1" source="GEA49JJ0HyQCU_waUK4Q-17" target="GEA49JJ0HyQCU_waUK4Q-58">
          <mxGeometry width="50" height="50" relative="1" as="geometry">
            <mxPoint x="430" y="410" as="sourcePoint" />
            <mxPoint x="430" y="360" as="targetPoint" />
          </mxGeometry>
        </mxCell>
        <mxCell id="GEA49JJ0HyQCU_waUK4Q-80" value="&lt;span style=&quot;font-size: 11px&quot;&gt;&lt;b&gt;Start&lt;/b&gt;&lt;/span&gt;" style="text;html=1;strokeColor=none;fillColor=none;align=center;verticalAlign=middle;whiteSpace=wrap;rounded=0;fontSize=12;rotation=-90;" vertex="1" parent="WIyWlLk6GJQsqaUBKTNV-1">
          <mxGeometry x="389.14000000000004" y="419.99999999999994" width="51.72413793103448" height="26.150043879646564" as="geometry" />
        </mxCell>
        <mxCell id="GEA49JJ0HyQCU_waUK4Q-58" value="&lt;p class=&quot;MsoNormal&quot;&gt;&lt;span style=&quot;color: rgba(0 , 0 , 0 , 0) ; font-family: monospace ; font-size: 0px&quot;&gt;sss%3CmxGraphModel%3E%3Croot%3E%3CmxCell%20id%3D%220%22%2F%3E%3CmxCell%20id%3D%221%22%20parent%3D%220%22%2F%3E%3CmxCell%20id%3D%222%22%20value%3D%22%26lt%3Bp%20class%3D%26quot%3BMsoNormal%26quot%3B%26gt%3B%26lt%3Bspan%20style%3D%26quot%3Bfont-family%3A%20%26amp%3B%2334%3Btimes%20new%20roman%26amp%3B%2334%3B%20%3B%20font-size%3A%2010.5000pt%26quot%3B%26gt%3Bquestions%26amp%3Bnbsp%3B%26lt%3B%2Fspan%26gt%3B%26lt%3Bspan%20style%3D%26quot%3Bfont-family%3A%20%26amp%3B%2334%3Btimes%20new%20roman%26amp%3B%2334%3B%20%3B%20font-size%3A%2010.5pt%26quot%3B%26gt%3Bmodule%26lt%3B%2Fspan%26gt%3B%26lt%3B%2Fp%26gt%3B%22%20style%3D%22rounded%3D1%3BwhiteSpace%3Dwrap%3Bhtml%3D1%3BfontSize%3D12%3Bglass%3D0%3BstrokeWidth%3D1%3Bshadow%3D0%3B%22%20vertex%3D%221%22%20parent%3D%221%22%3E%3CmxGeometry%20x%3D%22420%22%20y%3D%22100%22%20width%3D%22120%22%20height%3D%2240%22%20as%3D%22geometry%22%2F%3E%3C%2FmxCell%3E%3C%2Froot%3E%3C%2FmxGraphModel%3Es&lt;/span&gt;&lt;span style=&quot;font-family: &amp;#34;times new roman&amp;#34; ; font-size: 10.5pt&quot;&gt;Start back-testing&lt;/span&gt;&lt;br&gt;&lt;/p&gt;" style="rounded=1;whiteSpace=wrap;html=1;fontSize=12;glass=0;strokeWidth=1;shadow=0;" vertex="1" parent="WIyWlLk6GJQsqaUBKTNV-1">
          <mxGeometry x="370" y="321" width="120" height="40" as="geometry" />
        </mxCell>
        <mxCell id="GEA49JJ0HyQCU_waUK4Q-81" value="&lt;p class=&quot;MsoNormal&quot;&gt;&lt;span style=&quot;color: rgba(0 , 0 , 0 , 0) ; font-family: monospace ; font-size: 0px&quot;&gt;sss%3CmxGraphModel%3E%3Croot%3E%3CmxCell%20id%3D%220%22%2F%3E%3CmxCell%20id%3D%221%22%20parent%3D%220%22%2F%3E%3CmxCell%20id%3D%222%22%20value%3D%22%26lt%3Bp%20class%3D%26quot%3BMsoNormal%26quot%3B%26gt%3B%26lt%3Bspan%20style%3D%26quot%3Bfont-family%3A%20%26amp%3B%2334%3Btimes%20new%20roman%26amp%3B%2334%3B%20%3B%20font-size%3A%2010.5000pt%26quot%3B%26gt%3Bquestions%26amp%3Bnbsp%3B%26lt%3B%2Fspan%26gt%3B%26lt%3Bspan%20style%3D%26quot%3Bfont-family%3A%20%26amp%3B%2334%3Btimes%20new%20roman%26amp%3B%2334%3B%20%3B%20font-size%3A%2010.5pt%26quot%3B%26gt%3Bmodule%26lt%3B%2Fspan%26gt%3B%26lt%3B%2Fp%26gt%3B%22%20style%3D%22rounded%3D1%3BwhiteSpace%3Dwrap%3Bhtml%3D1%3BfontSize%3D12%3Bglass%3D0%3BstrokeWidth%3D1%3Bshadow%3D0%3B%22%20vertex%3D%221%22%20parent%3D%221%22%3E%3CmxGeometry%20x%3D%22420%22%20y%3D%22100%22%20width%3D%22120%22%20height%3D%2240%22%20as%3D%22geometry%22%2F%3E%3C%2FmxCell%3E%3C%2Froot%3E%3C%2FmxGraphModel%&lt;/span&gt;&lt;span style=&quot;font-family: &amp;#34;times new roman&amp;#34; ; font-size: 10.5pt&quot;&gt;Update Stocks&amp;nbsp;&lt;/span&gt;&lt;br&gt;&lt;/p&gt;" style="rounded=1;whiteSpace=wrap;html=1;fontSize=12;glass=0;strokeWidth=1;shadow=0;" vertex="1" parent="WIyWlLk6GJQsqaUBKTNV-1">
          <mxGeometry x="450" y="194" width="120" height="40" as="geometry" />
        </mxCell>
        <mxCell id="GEA49JJ0HyQCU_waUK4Q-82" value="&lt;span style=&quot;font-size: 11px&quot;&gt;&lt;b&gt;Response&lt;/b&gt;&lt;/span&gt;" style="text;html=1;strokeColor=none;fillColor=none;align=center;verticalAlign=middle;whiteSpace=wrap;rounded=0;fontSize=12;rotation=90;" vertex="1" parent="WIyWlLk6GJQsqaUBKTNV-1">
          <mxGeometry x="405.28000000000003" y="419.99999999999994" width="51.72413793103448" height="26.150043879646564" as="geometry" />
        </mxCell>
        <mxCell id="GEA49JJ0HyQCU_waUK4Q-83" value="" style="endArrow=classic;startArrow=classic;html=1;rounded=0;fontSize=20;exitX=1;exitY=0.5;exitDx=0;exitDy=0;entryX=0;entryY=0.5;entryDx=0;entryDy=0;" edge="1" parent="WIyWlLk6GJQsqaUBKTNV-1" source="GEA49JJ0HyQCU_waUK4Q-17" target="GEA49JJ0HyQCU_waUK4Q-60">
          <mxGeometry width="50" height="50" relative="1" as="geometry">
            <mxPoint x="490" y="537.95" as="sourcePoint" />
            <mxPoint x="540" y="487.95" as="targetPoint" />
          </mxGeometry>
        </mxCell>
        <mxCell id="GEA49JJ0HyQCU_waUK4Q-86" value="&lt;span style=&quot;font-size: 11px&quot;&gt;&lt;b&gt;Start&lt;/b&gt;&lt;/span&gt;" style="text;html=1;strokeColor=none;fillColor=none;align=center;verticalAlign=middle;whiteSpace=wrap;rounded=0;fontSize=12;rotation=0;" vertex="1" parent="WIyWlLk6GJQsqaUBKTNV-1">
          <mxGeometry x="492.85" y="515.8" width="51.72413793103448" height="26.150043879646564" as="geometry" />
        </mxCell>
        <mxCell id="GEA49JJ0HyQCU_waUK4Q-87" value="&lt;span style=&quot;font-size: 11px&quot;&gt;&lt;b&gt;response&lt;/b&gt;&lt;/span&gt;" style="text;html=1;strokeColor=none;fillColor=none;align=center;verticalAlign=middle;whiteSpace=wrap;rounded=0;fontSize=12;rotation=0;" vertex="1" parent="WIyWlLk6GJQsqaUBKTNV-1">
          <mxGeometry x="492.85" y="531.8" width="51.72413793103448" height="26.150043879646564" as="geometry" />
        </mxCell>
        <mxCell id="GEA49JJ0HyQCU_waUK4Q-88" value="" style="endArrow=classic;html=1;rounded=0;fontSize=20;exitX=0;exitY=0;exitDx=0;exitDy=0;entryX=0.639;entryY=1.027;entryDx=0;entryDy=0;entryPerimeter=0;" edge="1" parent="WIyWlLk6GJQsqaUBKTNV-1" source="GEA49JJ0HyQCU_waUK4Q-60" target="GEA49JJ0HyQCU_waUK4Q-58">
          <mxGeometry width="50" height="50" relative="1" as="geometry">
            <mxPoint x="450" y="430" as="sourcePoint" />
            <mxPoint x="450" y="370" as="targetPoint" />
          </mxGeometry>
        </mxCell>
        <mxCell id="GEA49JJ0HyQCU_waUK4Q-89" value="&lt;span style=&quot;font-size: 11px&quot;&gt;&lt;b&gt;isFrceSell = True&lt;/b&gt;&lt;/span&gt;" style="text;html=1;strokeColor=none;fillColor=none;align=center;verticalAlign=middle;whiteSpace=wrap;rounded=0;fontSize=12;rotation=53;" vertex="1" parent="WIyWlLk6GJQsqaUBKTNV-1">
          <mxGeometry x="460.86" y="421.08" width="96.72" height="26.15" as="geometry" />
        </mxCell>
        <mxCell id="GEA49JJ0HyQCU_waUK4Q-90" value="" style="endArrow=classic;html=1;rounded=0;fontSize=20;entryX=1;entryY=1;entryDx=0;entryDy=0;exitX=0;exitY=0.5;exitDx=0;exitDy=0;" edge="1" parent="WIyWlLk6GJQsqaUBKTNV-1" source="GEA49JJ0HyQCU_waUK4Q-62" target="GEA49JJ0HyQCU_waUK4Q-58">
          <mxGeometry width="50" height="50" relative="1" as="geometry">
            <mxPoint x="542.42" y="420" as="sourcePoint" />
            <mxPoint x="592.42" y="370" as="targetPoint" />
          </mxGeometry>
        </mxCell>
        <mxCell id="GEA49JJ0HyQCU_waUK4Q-91" value="&lt;span style=&quot;font-size: 11px&quot;&gt;&lt;b&gt;isJustSell = True&lt;/b&gt;&lt;/span&gt;" style="text;html=1;strokeColor=none;fillColor=none;align=center;verticalAlign=middle;whiteSpace=wrap;rounded=0;fontSize=12;rotation=28;flipH=0;flipV=0;" vertex="1" parent="WIyWlLk6GJQsqaUBKTNV-1">
          <mxGeometry x="511.86" y="376.08" width="96.72" height="26.15" as="geometry" />
        </mxCell>
        <mxCell id="GEA49JJ0HyQCU_waUK4Q-92" value="" style="endArrow=classic;html=1;rounded=0;fontSize=20;exitX=0.5;exitY=1;exitDx=0;exitDy=0;entryX=0.915;entryY=1.073;entryDx=0;entryDy=0;entryPerimeter=0;startArrow=classic;startFill=1;" edge="1" parent="WIyWlLk6GJQsqaUBKTNV-1" source="GEA49JJ0HyQCU_waUK4Q-17" target="GEA49JJ0HyQCU_waUK4Q-62">
          <mxGeometry width="50" height="50" relative="1" as="geometry">
            <mxPoint x="469" y="610" as="sourcePoint" />
            <mxPoint x="730" y="460" as="targetPoint" />
            <Array as="points">
              <mxPoint x="440" y="590" />
              <mxPoint x="740" y="590" />
            </Array>
          </mxGeometry>
        </mxCell>
        <mxCell id="GEA49JJ0HyQCU_waUK4Q-93" value="&lt;span style=&quot;font-size: 11px&quot;&gt;&lt;b&gt;Start&lt;/b&gt;&lt;/span&gt;" style="text;html=1;strokeColor=none;fillColor=none;align=center;verticalAlign=middle;whiteSpace=wrap;rounded=0;fontSize=12;rotation=0;" vertex="1" parent="WIyWlLk6GJQsqaUBKTNV-1">
          <mxGeometry x="560.85" y="568.8" width="51.72413793103448" height="26.150043879646564" as="geometry" />
        </mxCell>
        <mxCell id="GEA49JJ0HyQCU_waUK4Q-94" value="&lt;span style=&quot;font-size: 11px&quot;&gt;&lt;b&gt;response&lt;/b&gt;&lt;/span&gt;" style="text;html=1;strokeColor=none;fillColor=none;align=center;verticalAlign=middle;whiteSpace=wrap;rounded=0;fontSize=12;rotation=0;" vertex="1" parent="WIyWlLk6GJQsqaUBKTNV-1">
          <mxGeometry x="562.85" y="583.8" width="51.72413793103448" height="26.150043879646564" as="geometry" />
        </mxCell>
        <mxCell id="GEA49JJ0HyQCU_waUK4Q-95" value="" style="endArrow=classic;startArrow=classic;html=1;rounded=0;fontSize=20;entryX=1;entryY=1;entryDx=0;entryDy=0;entryPerimeter=0;exitX=0;exitY=0;exitDx=0;exitDy=0;" edge="1" parent="WIyWlLk6GJQsqaUBKTNV-1" source="GEA49JJ0HyQCU_waUK4Q-17" target="GEA49JJ0HyQCU_waUK4Q-66">
          <mxGeometry width="50" height="50" relative="1" as="geometry">
            <mxPoint x="280" y="440" as="sourcePoint" />
            <mxPoint x="280" y="390" as="targetPoint" />
          </mxGeometry>
        </mxCell>
        <mxCell id="GEA49JJ0HyQCU_waUK4Q-96" value="&lt;span style=&quot;font-size: 11px&quot;&gt;&lt;b&gt;request data&lt;/b&gt;&lt;/span&gt;" style="text;html=1;strokeColor=none;fillColor=none;align=center;verticalAlign=middle;whiteSpace=wrap;rounded=0;fontSize=12;rotation=50;" vertex="1" parent="WIyWlLk6GJQsqaUBKTNV-1">
          <mxGeometry x="311" y="424.08" width="77.86" height="26.15" as="geometry" />
        </mxCell>
        <mxCell id="GEA49JJ0HyQCU_waUK4Q-98" value="&lt;span style=&quot;font-size: 11px&quot;&gt;&lt;b&gt;return data&lt;/b&gt;&lt;/span&gt;" style="text;html=1;strokeColor=none;fillColor=none;align=center;verticalAlign=middle;whiteSpace=wrap;rounded=0;fontSize=12;rotation=51;" vertex="1" parent="WIyWlLk6GJQsqaUBKTNV-1">
          <mxGeometry x="301.78" y="430.5" width="72.72" height="26.15" as="geometry" />
        </mxCell>
        <mxCell id="GEA49JJ0HyQCU_waUK4Q-99" value="" style="endArrow=none;dashed=1;html=1;dashPattern=1 3;strokeWidth=2;rounded=0;fontSize=20;" edge="1" parent="WIyWlLk6GJQsqaUBKTNV-1">
          <mxGeometry width="50" height="50" relative="1" as="geometry">
            <mxPoint x="120" y="270" as="sourcePoint" />
            <mxPoint x="600" y="270" as="targetPoint" />
          </mxGeometry>
        </mxCell>
        <mxCell id="GEA49JJ0HyQCU_waUK4Q-100" value="" style="endArrow=none;dashed=1;html=1;dashPattern=1 3;strokeWidth=2;rounded=0;fontSize=20;" edge="1" parent="WIyWlLk6GJQsqaUBKTNV-1">
          <mxGeometry width="50" height="50" relative="1" as="geometry">
            <mxPoint x="120" y="270" as="sourcePoint" />
            <mxPoint x="120" y="160" as="targetPoint" />
          </mxGeometry>
        </mxCell>
        <mxCell id="GEA49JJ0HyQCU_waUK4Q-101" value="" style="endArrow=none;dashed=1;html=1;dashPattern=1 3;strokeWidth=2;rounded=0;fontSize=20;" edge="1" parent="WIyWlLk6GJQsqaUBKTNV-1">
          <mxGeometry width="50" height="50" relative="1" as="geometry">
            <mxPoint x="120" y="160" as="sourcePoint" />
            <mxPoint x="760" y="160" as="targetPoint" />
          </mxGeometry>
        </mxCell>
        <mxCell id="GEA49JJ0HyQCU_waUK4Q-102" value="" style="endArrow=none;dashed=1;html=1;rounded=0;fontSize=20;" edge="1" parent="WIyWlLk6GJQsqaUBKTNV-1">
          <mxGeometry width="50" height="50" relative="1" as="geometry">
            <mxPoint x="760" y="370" as="sourcePoint" />
            <mxPoint x="760" y="160" as="targetPoint" />
          </mxGeometry>
        </mxCell>
        <mxCell id="GEA49JJ0HyQCU_waUK4Q-103" value="" style="endArrow=none;dashed=1;html=1;dashPattern=1 3;strokeWidth=2;rounded=0;fontSize=20;" edge="1" parent="WIyWlLk6GJQsqaUBKTNV-1">
          <mxGeometry width="50" height="50" relative="1" as="geometry">
            <mxPoint x="593" y="370" as="sourcePoint" />
            <mxPoint x="593" y="276" as="targetPoint" />
          </mxGeometry>
        </mxCell>
        <mxCell id="GEA49JJ0HyQCU_waUK4Q-104" value="" style="endArrow=none;dashed=1;html=1;dashPattern=1 3;strokeWidth=2;rounded=0;fontSize=20;" edge="1" parent="WIyWlLk6GJQsqaUBKTNV-1">
          <mxGeometry width="50" height="50" relative="1" as="geometry">
            <mxPoint x="758" y="372" as="sourcePoint" />
            <mxPoint x="596" y="372" as="targetPoint" />
          </mxGeometry>
        </mxCell>
        <mxCell id="GEA49JJ0HyQCU_waUK4Q-105" value="&lt;b style=&quot;font-size: 15px&quot;&gt;Tading API&lt;/b&gt;" style="text;html=1;strokeColor=none;fillColor=none;align=center;verticalAlign=middle;whiteSpace=wrap;rounded=0;fontSize=9;" vertex="1" parent="WIyWlLk6GJQsqaUBKTNV-1">
          <mxGeometry x="82" y="158" width="200" height="30" as="geometry" />
        </mxCell>
        <mxCell id="GEA49JJ0HyQCU_waUK4Q-106" value="" style="endArrow=classic;html=1;rounded=0;fontSize=15;entryX=1;entryY=0.5;entryDx=0;entryDy=0;entryPerimeter=0;exitX=0;exitY=0.5;exitDx=0;exitDy=0;" edge="1" parent="WIyWlLk6GJQsqaUBKTNV-1" source="GEA49JJ0HyQCU_waUK4Q-58" target="GEA49JJ0HyQCU_waUK4Q-66">
          <mxGeometry width="50" height="50" relative="1" as="geometry">
            <mxPoint x="550" y="340" as="sourcePoint" />
            <mxPoint x="600" y="290" as="targetPoint" />
          </mxGeometry>
        </mxCell>
        <mxCell id="GEA49JJ0HyQCU_waUK4Q-107" value="&lt;span style=&quot;font-size: 11px&quot;&gt;&lt;b&gt;&lt;font color=&quot;#ff6666&quot;&gt;*&lt;/font&gt;save Data&lt;/b&gt;&lt;/span&gt;" style="text;html=1;strokeColor=none;fillColor=none;align=center;verticalAlign=middle;whiteSpace=wrap;rounded=0;fontSize=12;rotation=0;" vertex="1" parent="WIyWlLk6GJQsqaUBKTNV-1">
          <mxGeometry x="293.85" y="320.8" width="71.15" height="26.15" as="geometry" />
        </mxCell>
        <mxCell id="GEA49JJ0HyQCU_waUK4Q-110" value="&lt;b style=&quot;font-size: 15px&quot;&gt;note: &lt;font color=&quot;#ff6666&quot;&gt;* &lt;/font&gt;symbol means the action is more than once&amp;nbsp;&lt;/b&gt;" style="text;html=1;strokeColor=none;fillColor=none;align=left;verticalAlign=middle;whiteSpace=wrap;rounded=0;fontSize=9;" vertex="1" parent="WIyWlLk6GJQsqaUBKTNV-1">
          <mxGeometry x="41.57" y="606" width="382.43" height="30" as="geometry" />
        </mxCell>
        <mxCell id="GEA49JJ0HyQCU_waUK4Q-111" value="" style="endArrow=classic;startArrow=classic;html=1;rounded=0;fontSize=15;fontColor=#000000;entryX=0;entryY=0.5;entryDx=0;entryDy=0;exitX=1;exitY=0.5;exitDx=0;exitDy=0;" edge="1" parent="WIyWlLk6GJQsqaUBKTNV-1" source="GEA49JJ0HyQCU_waUK4Q-58" target="GEA49JJ0HyQCU_waUK4Q-72">
          <mxGeometry width="50" height="50" relative="1" as="geometry">
            <mxPoint x="430" y="370" as="sourcePoint" />
            <mxPoint x="480" y="320" as="targetPoint" />
          </mxGeometry>
        </mxCell>
        <mxCell id="GEA49JJ0HyQCU_waUK4Q-112" value="&lt;span style=&quot;font-size: 11px&quot;&gt;&lt;b&gt;&lt;font color=&quot;#ff6666&quot;&gt;*&lt;/font&gt;send post request&lt;/b&gt;&lt;/span&gt;" style="text;html=1;strokeColor=none;fillColor=none;align=center;verticalAlign=middle;whiteSpace=wrap;rounded=0;fontSize=12;rotation=0;" vertex="1" parent="WIyWlLk6GJQsqaUBKTNV-1">
          <mxGeometry x="491.85" y="320.65000000000003" width="120" height="26.15" as="geometry" />
        </mxCell>
        <mxCell id="GEA49JJ0HyQCU_waUK4Q-113" value="&lt;span style=&quot;font-size: 11px&quot;&gt;&lt;b&gt;&lt;font color=&quot;#ff6666&quot;&gt;*&lt;/font&gt;return data&lt;/b&gt;&lt;/span&gt;" style="text;html=1;strokeColor=none;fillColor=none;align=center;verticalAlign=middle;whiteSpace=wrap;rounded=0;fontSize=12;rotation=0;" vertex="1" parent="WIyWlLk6GJQsqaUBKTNV-1">
          <mxGeometry x="489" y="334.8" width="120" height="26.15" as="geometry" />
        </mxCell>
        <mxCell id="GEA49JJ0HyQCU_waUK4Q-114" value="" style="endArrow=classic;html=1;rounded=0;fontSize=15;fontColor=#000000;exitX=1;exitY=0.5;exitDx=0;exitDy=0;entryX=1;entryY=0;entryDx=0;entryDy=0;entryPerimeter=0;startArrow=classic;startFill=1;" edge="1" parent="WIyWlLk6GJQsqaUBKTNV-1" source="GEA49JJ0HyQCU_waUK4Q-72" target="GEA49JJ0HyQCU_waUK4Q-65">
          <mxGeometry width="50" height="50" relative="1" as="geometry">
            <mxPoint x="749.9999999999999" y="317.8" as="sourcePoint" />
            <mxPoint x="470" y="110" as="targetPoint" />
            <Array as="points">
              <mxPoint x="790" y="340" />
              <mxPoint x="790" y="102" />
            </Array>
          </mxGeometry>
        </mxCell>
        <mxCell id="GEA49JJ0HyQCU_waUK4Q-116" value="&lt;span style=&quot;font-size: 11px&quot;&gt;&lt;b&gt;&lt;font color=&quot;#ff6666&quot;&gt;*&lt;/font&gt;return data&lt;/b&gt;&lt;/span&gt;" style="text;html=1;strokeColor=none;fillColor=none;align=center;verticalAlign=middle;whiteSpace=wrap;rounded=0;fontSize=12;rotation=0;" vertex="1" parent="WIyWlLk6GJQsqaUBKTNV-1">
          <mxGeometry x="579" y="81.80000000000001" width="120" height="26.15" as="geometry" />
        </mxCell>
        <mxCell id="GEA49JJ0HyQCU_waUK4Q-117" value="&lt;span style=&quot;font-size: 11px&quot;&gt;&lt;b&gt;&lt;font color=&quot;#ff6666&quot;&gt;*&lt;/font&gt;read data&lt;/b&gt;&lt;/span&gt;" style="text;html=1;strokeColor=none;fillColor=none;align=center;verticalAlign=middle;whiteSpace=wrap;rounded=0;fontSize=12;rotation=0;" vertex="1" parent="WIyWlLk6GJQsqaUBKTNV-1">
          <mxGeometry x="578" y="95.80000000000001" width="120" height="26.15" as="geometry" />
        </mxCell>
        <mxCell id="GEA49JJ0HyQCU_waUK4Q-118" value="" style="endArrow=classic;startArrow=classic;html=1;rounded=0;fontSize=15;fontColor=#000000;entryX=0.5;entryY=1;entryDx=0;entryDy=0;" edge="1" parent="WIyWlLk6GJQsqaUBKTNV-1" target="GEA49JJ0HyQCU_waUK4Q-61">
          <mxGeometry width="50" height="50" relative="1" as="geometry">
            <mxPoint x="490" y="320" as="sourcePoint" />
            <mxPoint x="554" y="257" as="targetPoint" />
          </mxGeometry>
        </mxCell>
        <mxCell id="GEA49JJ0HyQCU_waUK4Q-119" value="&lt;span style=&quot;font-size: 11px&quot;&gt;&lt;b&gt;&lt;font color=&quot;#ff6666&quot;&gt;*&lt;/font&gt;send post request&lt;/b&gt;&lt;/span&gt;" style="text;html=1;strokeColor=none;fillColor=none;align=center;verticalAlign=middle;whiteSpace=wrap;rounded=0;fontSize=12;rotation=334;" vertex="1" parent="WIyWlLk6GJQsqaUBKTNV-1">
          <mxGeometry x="509" y="259" width="120" height="26.15" as="geometry" />
        </mxCell>
        <mxCell id="GEA49JJ0HyQCU_waUK4Q-120" value="&lt;span style=&quot;font-size: 11px&quot;&gt;&lt;b&gt;&lt;font color=&quot;#ff6666&quot;&gt;*&lt;/font&gt;return data&lt;/b&gt;&lt;/span&gt;" style="text;html=1;strokeColor=none;fillColor=none;align=center;verticalAlign=middle;whiteSpace=wrap;rounded=0;fontSize=12;rotation=332;" vertex="1" parent="WIyWlLk6GJQsqaUBKTNV-1">
          <mxGeometry x="512" y="273.8" width="120" height="26.15" as="geometry" />
        </mxCell>
        <mxCell id="GEA49JJ0HyQCU_waUK4Q-122" value="" style="endArrow=classic;startArrow=classic;html=1;rounded=0;fontSize=15;fontColor=#000000;exitX=0.25;exitY=0;exitDx=0;exitDy=0;" edge="1" parent="WIyWlLk6GJQsqaUBKTNV-1" source="GEA49JJ0HyQCU_waUK4Q-61">
          <mxGeometry width="50" height="50" relative="1" as="geometry">
            <mxPoint x="583" y="179" as="sourcePoint" />
            <mxPoint x="480" y="130" as="targetPoint" />
            <Array as="points">
              <mxPoint x="634" y="130" />
            </Array>
          </mxGeometry>
        </mxCell>
        <mxCell id="GEA49JJ0HyQCU_waUK4Q-124" value="&lt;span style=&quot;font-size: 11px&quot;&gt;&lt;b&gt;&lt;font color=&quot;#ff6666&quot;&gt;*&lt;/font&gt;read data&lt;/b&gt;&lt;/span&gt;" style="text;html=1;strokeColor=none;fillColor=none;align=center;verticalAlign=middle;whiteSpace=wrap;rounded=0;fontSize=12;rotation=0;" vertex="1" parent="WIyWlLk6GJQsqaUBKTNV-1">
          <mxGeometry x="521" y="123.80000000000001" width="120" height="26.15" as="geometry" />
        </mxCell>
        <mxCell id="GEA49JJ0HyQCU_waUK4Q-125" value="&lt;span style=&quot;font-size: 11px&quot;&gt;&lt;b&gt;&lt;font color=&quot;#ff6666&quot;&gt;*&lt;/font&gt;return data&lt;/b&gt;&lt;/span&gt;" style="text;html=1;strokeColor=none;fillColor=none;align=center;verticalAlign=middle;whiteSpace=wrap;rounded=0;fontSize=12;rotation=0;" vertex="1" parent="WIyWlLk6GJQsqaUBKTNV-1">
          <mxGeometry x="520" y="110.80000000000001" width="120" height="26.15" as="geometry" />
        </mxCell>
        <mxCell id="GEA49JJ0HyQCU_waUK4Q-126" value="" style="endArrow=classic;startArrow=classic;html=1;rounded=0;fontSize=15;fontColor=#000000;entryX=0.75;entryY=1;entryDx=0;entryDy=0;exitX=0.75;exitY=0;exitDx=0;exitDy=0;" edge="1" parent="WIyWlLk6GJQsqaUBKTNV-1" source="GEA49JJ0HyQCU_waUK4Q-58" target="GEA49JJ0HyQCU_waUK4Q-81">
          <mxGeometry width="50" height="50" relative="1" as="geometry">
            <mxPoint x="445" y="315" as="sourcePoint" />
            <mxPoint x="495" y="265" as="targetPoint" />
          </mxGeometry>
        </mxCell>
        <mxCell id="GEA49JJ0HyQCU_waUK4Q-127" value="&lt;span style=&quot;font-size: 11px&quot;&gt;&lt;b&gt;&lt;font color=&quot;#ff6666&quot;&gt;*&lt;/font&gt;send post request&lt;/b&gt;&lt;/span&gt;" style="text;html=1;strokeColor=none;fillColor=none;align=center;verticalAlign=middle;whiteSpace=wrap;rounded=0;fontSize=12;rotation=313;" vertex="1" parent="WIyWlLk6GJQsqaUBKTNV-1">
          <mxGeometry x="436" y="260" width="120" height="26.15" as="geometry" />
        </mxCell>
        <mxCell id="GEA49JJ0HyQCU_waUK4Q-128" value="&lt;span style=&quot;font-size: 11px&quot;&gt;&lt;b&gt;&lt;font color=&quot;#ff6666&quot;&gt;*&lt;/font&gt;return data&lt;/b&gt;&lt;/span&gt;" style="text;html=1;strokeColor=none;fillColor=none;align=center;verticalAlign=middle;whiteSpace=wrap;rounded=0;fontSize=12;rotation=314;" vertex="1" parent="WIyWlLk6GJQsqaUBKTNV-1">
          <mxGeometry x="451" y="263.8" width="120" height="26.15" as="geometry" />
        </mxCell>
        <mxCell id="GEA49JJ0HyQCU_waUK4Q-129" value="" style="endArrow=classic;startArrow=classic;html=1;rounded=0;fontSize=15;fontColor=#000000;entryX=0.25;entryY=1;entryDx=0;entryDy=0;exitX=0.25;exitY=0;exitDx=0;exitDy=0;" edge="1" parent="WIyWlLk6GJQsqaUBKTNV-1" source="GEA49JJ0HyQCU_waUK4Q-58" target="GEA49JJ0HyQCU_waUK4Q-71">
          <mxGeometry width="50" height="50" relative="1" as="geometry">
            <mxPoint x="360" y="350" as="sourcePoint" />
            <mxPoint x="410" y="300" as="targetPoint" />
          </mxGeometry>
        </mxCell>
        <mxCell id="GEA49JJ0HyQCU_waUK4Q-130" value="&lt;span style=&quot;font-size: 11px&quot;&gt;&lt;b&gt;&lt;font color=&quot;#ff6666&quot;&gt;*&lt;/font&gt;send post request&lt;/b&gt;&lt;/span&gt;" style="text;html=1;strokeColor=none;fillColor=none;align=center;verticalAlign=middle;whiteSpace=wrap;rounded=0;fontSize=12;rotation=52;" vertex="1" parent="WIyWlLk6GJQsqaUBKTNV-1">
          <mxGeometry x="315" y="262.8" width="120" height="26.15" as="geometry" />
        </mxCell>
        <mxCell id="GEA49JJ0HyQCU_waUK4Q-131" value="&lt;span style=&quot;font-size: 11px&quot;&gt;&lt;b&gt;&lt;font color=&quot;#ff6666&quot;&gt;*&lt;/font&gt;return data&lt;/b&gt;&lt;/span&gt;" style="text;html=1;strokeColor=none;fillColor=none;align=center;verticalAlign=middle;whiteSpace=wrap;rounded=0;fontSize=12;rotation=30;" vertex="1" parent="WIyWlLk6GJQsqaUBKTNV-1">
          <mxGeometry x="219" y="265.8" width="120" height="26.15" as="geometry" />
        </mxCell>
        <mxCell id="GEA49JJ0HyQCU_waUK4Q-132" value="" style="endArrow=classic;startArrow=classic;html=1;rounded=0;fontSize=15;fontColor=#000000;entryX=0.5;entryY=1;entryDx=0;entryDy=0;" edge="1" parent="WIyWlLk6GJQsqaUBKTNV-1" target="GEA49JJ0HyQCU_waUK4Q-70">
          <mxGeometry width="50" height="50" relative="1" as="geometry">
            <mxPoint x="370" y="320" as="sourcePoint" />
            <mxPoint x="410" y="300" as="targetPoint" />
          </mxGeometry>
        </mxCell>
        <mxCell id="GEA49JJ0HyQCU_waUK4Q-133" value="&lt;span style=&quot;font-size: 11px&quot;&gt;&lt;b&gt;&lt;font color=&quot;#ff6666&quot;&gt;*&lt;/font&gt;send post request&lt;/b&gt;&lt;/span&gt;" style="text;html=1;strokeColor=none;fillColor=none;align=center;verticalAlign=middle;whiteSpace=wrap;rounded=0;fontSize=12;rotation=28;" vertex="1" parent="WIyWlLk6GJQsqaUBKTNV-1">
          <mxGeometry x="238" y="259.8" width="120" height="26.15" as="geometry" />
        </mxCell>
        <mxCell id="GEA49JJ0HyQCU_waUK4Q-134" value="" style="endArrow=classic;startArrow=classic;html=1;rounded=0;fontSize=15;fontColor=#000000;" edge="1" parent="WIyWlLk6GJQsqaUBKTNV-1">
          <mxGeometry width="50" height="50" relative="1" as="geometry">
            <mxPoint x="329" y="194" as="sourcePoint" />
            <mxPoint x="379" y="144" as="targetPoint" />
          </mxGeometry>
        </mxCell>
        <mxCell id="GEA49JJ0HyQCU_waUK4Q-135" value="&lt;span style=&quot;font-size: 11px&quot;&gt;&lt;b&gt;&lt;font color=&quot;#ff6666&quot;&gt;*&lt;/font&gt;read data&lt;/b&gt;&lt;/span&gt;" style="text;html=1;strokeColor=none;fillColor=none;align=center;verticalAlign=middle;whiteSpace=wrap;rounded=0;fontSize=12;rotation=-45;" vertex="1" parent="WIyWlLk6GJQsqaUBKTNV-1">
          <mxGeometry x="286" y="152.8" width="120" height="26.15" as="geometry" />
        </mxCell>
        <mxCell id="GEA49JJ0HyQCU_waUK4Q-136" value="&lt;span style=&quot;font-size: 11px&quot;&gt;&lt;b&gt;&lt;font color=&quot;#ff6666&quot;&gt;*&lt;/font&gt;return data&lt;/b&gt;&lt;/span&gt;" style="text;html=1;strokeColor=none;fillColor=none;align=center;verticalAlign=middle;whiteSpace=wrap;rounded=0;fontSize=12;rotation=30;" vertex="1" parent="WIyWlLk6GJQsqaUBKTNV-1">
          <mxGeometry x="427" y="155.8" width="120" height="26.15" as="geometry" />
        </mxCell>
        <mxCell id="GEA49JJ0HyQCU_waUK4Q-137" value="" style="endArrow=classic;startArrow=classic;html=1;rounded=0;fontSize=15;fontColor=#000000;exitX=0.75;exitY=0;exitDx=0;exitDy=0;" edge="1" parent="WIyWlLk6GJQsqaUBKTNV-1" source="GEA49JJ0HyQCU_waUK4Q-81" target="GEA49JJ0HyQCU_waUK4Q-65">
          <mxGeometry width="50" height="50" relative="1" as="geometry">
            <mxPoint x="470" y="209" as="sourcePoint" />
            <mxPoint x="520" y="159" as="targetPoint" />
          </mxGeometry>
        </mxCell>
        <mxCell id="GEA49JJ0HyQCU_waUK4Q-139" value="&lt;span style=&quot;font-size: 11px&quot;&gt;&lt;b&gt;&lt;font color=&quot;#ff6666&quot;&gt;*&lt;/font&gt;read data&lt;/b&gt;&lt;/span&gt;" style="text;html=1;strokeColor=none;fillColor=none;align=center;verticalAlign=middle;whiteSpace=wrap;rounded=0;fontSize=12;rotation=30;" vertex="1" parent="WIyWlLk6GJQsqaUBKTNV-1">
          <mxGeometry x="434" y="143.8" width="120" height="26.15" as="geometry" />
        </mxCell>
        <mxCell id="GEA49JJ0HyQCU_waUK4Q-140" value="&lt;span style=&quot;font-size: 11px&quot;&gt;&lt;b&gt;&lt;font color=&quot;#ff6666&quot;&gt;*&lt;/font&gt;return data&lt;/b&gt;&lt;/span&gt;" style="text;html=1;strokeColor=none;fillColor=none;align=center;verticalAlign=middle;whiteSpace=wrap;rounded=0;fontSize=12;rotation=317;" vertex="1" parent="WIyWlLk6GJQsqaUBKTNV-1">
          <mxGeometry x="301.86" y="160.95000000000002" width="120" height="26.15" as="geometry" />
        </mxCell>
        <mxCell id="GEA49JJ0HyQCU_waUK4Q-141" value="" style="endArrow=classic;startArrow=classic;html=1;rounded=0;fontSize=15;fontColor=#000000;exitX=0.75;exitY=0;exitDx=0;exitDy=0;" edge="1" parent="WIyWlLk6GJQsqaUBKTNV-1" source="GEA49JJ0HyQCU_waUK4Q-70">
          <mxGeometry width="50" height="50" relative="1" as="geometry">
            <mxPoint x="230" y="185" as="sourcePoint" />
            <mxPoint x="360" y="130" as="targetPoint" />
            <Array as="points">
              <mxPoint x="240" y="130" />
            </Array>
          </mxGeometry>
        </mxCell>
        <mxCell id="GEA49JJ0HyQCU_waUK4Q-142" value="&lt;span style=&quot;font-size: 11px&quot;&gt;&lt;b&gt;&lt;font color=&quot;#ff6666&quot;&gt;*&lt;/font&gt;read data&lt;/b&gt;&lt;/span&gt;" style="text;html=1;strokeColor=none;fillColor=none;align=center;verticalAlign=middle;whiteSpace=wrap;rounded=0;fontSize=12;rotation=0;" vertex="1" parent="WIyWlLk6GJQsqaUBKTNV-1">
          <mxGeometry x="240" y="108.80000000000001" width="120" height="26.15" as="geometry" />
        </mxCell>
        <mxCell id="GEA49JJ0HyQCU_waUK4Q-143" value="&lt;span style=&quot;font-size: 11px&quot;&gt;&lt;b&gt;&lt;font color=&quot;#ff6666&quot;&gt;*&lt;/font&gt;return data&lt;/b&gt;&lt;/span&gt;" style="text;html=1;strokeColor=none;fillColor=none;align=center;verticalAlign=middle;whiteSpace=wrap;rounded=0;fontSize=12;rotation=0;" vertex="1" parent="WIyWlLk6GJQsqaUBKTNV-1">
          <mxGeometry x="241" y="123.80000000000001" width="120" height="26.15" as="geometry" />
        </mxCell>
      </root>
    </mxGraphModel>
  </diagram>
</mxfile>
